<?xml version="1.0" standalone="no"?>
<!DOCTYPE svg PUBLIC "-//W3C//DTD SVG 20010904//EN"
 "http://www.w3.org/TR/2001/REC-SVG-20010904/DTD/svg10.dtd">
<svg version="1.0" xmlns="http://www.w3.org/2000/svg"
 width="638.000000pt" height="638.000000pt" viewBox="0 0 638.000000 638.000000"
 preserveAspectRatio="xMidYMid meet">
<metadata>
Created by potrace 1.11, written by Peter Selinger 2001-2013
</metadata>
<g transform="translate(0.000000,638.000000) scale(0.100000,-0.100000)"
fill="#000000" stroke="none">
<path d="M2915 6354 c-174 -20 -296 -38 -299 -43 -2 -3 17 -121 43 -261 43
-233 49 -255 66 -253 11 1 76 9 145 17 164 21 477 21 640 1 1132 -140 2050
-988 2274 -2100 40 -198 50 -308 50 -540 -1 -319 -36 -542 -135 -840 -128
-383 -344 -732 -638 -1025 -419 -418 -928 -670 -1526 -756 -170 -25 -514 -25
-693 0 -73 10 -134 17 -136 15 -3 -5 -95 -513 -93 -516 6 -5 232 -34 341 -43
677 -54 1397 132 1969 510 297 196 538 415 762 695 152 189 342 513 441 750
188 455 273 981 234 1450 -55 653 -274 1217 -674 1735 -103 133 -380 412 -516
520 -478 377 -1031 606 -1630 675 -122 13 -531 19 -625 9z"/>
<path d="M1690 5988 c-144 -76 -336 -201 -471 -308 -131 -103 -331 -289 -327
-304 2 -6 71 -74 153 -150 83 -77 167 -155 187 -174 l37 -35 98 91 c188 173
361 299 561 407 50 28 92 54 92 60 0 7 -205 460 -214 472 -1 1 -53 -25 -116
-59z"/>
<path d="M4245 4757 c-16 -8 -37 -23 -46 -33 -9 -11 -335 -505 -724 -1099
-389 -594 -712 -1084 -716 -1089 -5 -5 -152 131 -333 307 -178 174 -336 321
-351 327 -38 14 -101 12 -133 -4 -39 -21 -306 -295 -327 -335 -21 -42 -17
-136 8 -174 27 -41 1032 -984 1083 -1017 112 -71 224 -61 310 28 68 70 1745
2636 1757 2689 12 51 -2 108 -37 150 -14 16 -98 80 -187 143 -155 108 -166
114 -219 117 -32 2 -67 -2 -85 -10z"/>
<path d="M321 4560 c-117 -247 -201 -498 -256 -769 -14 -68 -25 -138 -25 -155
l0 -32 243 -28 c133 -15 250 -30 259 -32 13 -4 18 4 23 33 42 259 121 515 229
745 25 54 46 101 46 106 0 7 -438 262 -451 262 -3 0 -34 -59 -68 -130z"/>
<path d="M275 2790 c-132 -16 -241 -29 -241 -29 -5 -4 52 -295 72 -371 35
-131 90 -298 132 -400 37 -90 128 -280 141 -293 8 -8 471 217 471 228 0 3 -17
40 -39 83 -74 147 -150 355 -196 531 -13 49 -55 263 -55 278 0 5 -39 2 -285
-27z"/>
<path d="M1082 1175 c-106 -96 -192 -179 -192 -184 0 -27 287 -280 451 -398
137 -98 415 -263 445 -263 9 0 243 434 245 455 1 5 -42 33 -95 62 -225 120
-400 248 -577 420 l-86 84 -191 -176z"/>
</g>
</svg>
